<?xml version="1.0" standalone="no"?><svg xmlns="http://www.w3.org/2000/svg" viewBox="0 0 1440 320"><path fill="#0099ff" fill-opacity="1" d="M0,224L0,192L41.1,192L41.1,224L82.3,224L82.3,96L123.4,96L123.4,192L164.6,192L164.6,224L205.7,224L205.7,288L246.9,288L246.9,128L288,128L288,160L329.1,160L329.1,128L370.3,128L370.3,128L411.4,128L411.4,320L452.6,320L452.6,32L493.7,32L493.7,160L534.9,160L534.9,160L576,160L576,288L617.1,288L617.1,128L658.3,128L658.3,224L699.4,224L699.4,64L740.6,64L740.6,256L781.7,256L781.7,224L822.9,224L822.9,288L864,288L864,96L905.1,96L905.1,96L946.3,96L946.3,96L987.4,96L987.4,288L1028.6,288L1028.6,96L1069.7,96L1069.7,32L1110.9,32L1110.9,192L1152,192L1152,256L1193.1,256L1193.1,160L1234.3,160L1234.3,288L1275.4,288L1275.4,192L1316.6,192L1316.6,288L1357.7,288L1357.7,64L1398.9,64L1398.9,320L1440,320L1440,0L1398.9,0L1398.9,0L1357.7,0L1357.7,0L1316.6,0L1316.6,0L1275.4,0L1275.4,0L1234.3,0L1234.3,0L1193.1,0L1193.1,0L1152,0L1152,0L1110.9,0L1110.9,0L1069.7,0L1069.7,0L1028.6,0L1028.6,0L987.4,0L987.4,0L946.3,0L946.3,0L905.1,0L905.1,0L864,0L864,0L822.9,0L822.9,0L781.7,0L781.7,0L740.6,0L740.6,0L699.4,0L699.4,0L658.3,0L658.3,0L617.1,0L617.1,0L576,0L576,0L534.9,0L534.9,0L493.7,0L493.7,0L452.6,0L452.6,0L411.4,0L411.4,0L370.3,0L370.3,0L329.1,0L329.1,0L288,0L288,0L246.9,0L246.9,0L205.7,0L205.7,0L164.6,0L164.6,0L123.4,0L123.4,0L82.3,0L82.3,0L41.1,0L41.1,0L0,0L0,0Z"></path></svg>